<svg xmlns="http://www.w3.org/2000/svg" width="500" height="159.274" viewBox="0 0 500 159.274">
  <g id="Group_2" data-name="Group 2" transform="translate(-1097 -819)">
    <path id="Path_32" data-name="Path 32" d="M27.745,83.15H8.449V-30.636h19.3ZM6.885-60.818A11.67,11.67,0,0,1,9.753-68.81q2.868-3.26,8.5-3.26t8.553,3.26a11.546,11.546,0,0,1,2.92,7.992,11.165,11.165,0,0,1-2.92,7.887q-2.92,3.155-8.553,3.155t-8.5-3.155A11.283,11.283,0,0,1,6.885-60.818Z" transform="translate(1091.136 893.41)" fill="#5a5a5a"/>
    <path id="Path_33" data-name="Path 33" d="M61.385-34.409q-2.5-.417-4.641-.574t-4.85-.156q-10.013,0-16.323,4.381a26.608,26.608,0,0,0-9.439,11.786v80.1H6.836V-51.723H25.61l.313,13.037A33.971,33.971,0,0,1,36.874-49.741q6.571-4.068,15.958-4.068a28.519,28.519,0,0,1,4.8.469,15.225,15.225,0,0,1,3.755.991Z" transform="translate(1148.754 915.43)" fill="#5a5a5a"/>
    <path id="Path_34" data-name="Path 34" d="M27.745,83.15H8.449V-30.636h19.3ZM6.885-60.818A11.67,11.67,0,0,1,9.753-68.81q2.868-3.26,8.5-3.26t8.553,3.26a11.546,11.546,0,0,1,2.92,7.992,11.165,11.165,0,0,1-2.92,7.887q-2.92,3.155-8.553,3.155t-8.5-3.155A11.283,11.283,0,0,1,6.885-60.818Z" transform="translate(1356.1 893.41)" fill="#5a5a5a"/>
    <path id="Path_35" data-name="Path 35" d="M61.385-34.409q-2.5-.417-4.641-.574t-4.85-.156q-10.013,0-16.323,4.381a26.608,26.608,0,0,0-9.439,11.786v80.1H6.836V-51.723H25.61l.313,13.037A33.971,33.971,0,0,1,36.874-49.741q6.571-4.068,15.958-4.068a28.519,28.519,0,0,1,4.8.469,15.225,15.225,0,0,1,3.755.991Z" transform="translate(1414.4 915.43)" fill="#5a5a5a"/>
    <ellipse id="Ellipse_38" data-name="Ellipse 38" cx="52.5" cy="52" rx="52.5" ry="52" transform="translate(1227.32 874.274)" fill="#ffacc7"/>
    <ellipse id="Ellipse_39" data-name="Ellipse 39" cx="51.5" cy="52" rx="51.5" ry="52" transform="translate(1494 874.274)" fill="#cafc74"/>
    <ellipse id="Ellipse_40" data-name="Ellipse 40" cx="12.5" cy="13" rx="12.5" ry="13" transform="translate(1097 819)" fill="#efec6b"/>
    <circle id="Ellipse_41" data-name="Ellipse 41" cx="13" cy="13" r="13" transform="translate(1361.23 819)" fill="#92dde6"/>
  </g>
</svg>
