<svg xmlns="http://www.w3.org/2000/svg" xmlns:xlink="http://www.w3.org/1999/xlink" width="1200" height="670" viewBox="0 0 1200 670">
  <defs>
    <clipPath id="clip-Web_1920_6">
      <rect width="1200" height="670"/>
    </clipPath>
  </defs>
  <g id="Web_1920_6" data-name="Web 1920 – 6" clip-path="url(#clip-Web_1920_6)">
    <rect width="1200" height="670" fill="#fff"/>
    <circle id="Ellipse_42" data-name="Ellipse 42" cx="20" cy="20" r="20" transform="translate(303 105)" fill="#cafc74"/>
    <circle id="Ellipse_43" data-name="Ellipse 43" cx="20" cy="20" r="20" transform="translate(123 105)" fill="#ffacc7"/>
    <circle id="Ellipse_44" data-name="Ellipse 44" cx="20" cy="20" r="20" transform="translate(213 21)" fill="#92dde6"/>
    <circle id="Ellipse_45" data-name="Ellipse 45" cx="20" cy="20" r="20" transform="translate(33 21)" fill="#efec6b"/>
    <circle id="Ellipse_50" data-name="Ellipse 50" cx="20" cy="20" r="20" transform="translate(663 105)" fill="#cafc74"/>
    <circle id="Ellipse_51" data-name="Ellipse 51" cx="20" cy="20" r="20" transform="translate(483 105)" fill="#ffacc7"/>
    <circle id="Ellipse_52" data-name="Ellipse 52" cx="20" cy="20" r="20" transform="translate(573 21)" fill="#92dde6"/>
    <circle id="Ellipse_53" data-name="Ellipse 53" cx="20" cy="20" r="20" transform="translate(393 21)" fill="#efec6b"/>
    <circle id="Ellipse_76" data-name="Ellipse 76" cx="20" cy="20" r="20" transform="translate(1023 105)" fill="#cafc74"/>
    <circle id="Ellipse_77" data-name="Ellipse 77" cx="20" cy="20" r="20" transform="translate(843 105)" fill="#ffacc7"/>
    <circle id="Ellipse_78" data-name="Ellipse 78" cx="20" cy="20" r="20" transform="translate(933 21)" fill="#92dde6"/>
    <circle id="Ellipse_79" data-name="Ellipse 79" cx="20" cy="20" r="20" transform="translate(753 21)" fill="#efec6b"/>
    <circle id="Ellipse_83" data-name="Ellipse 83" cx="20" cy="20" r="20" transform="translate(1113 21)" fill="#efec6b"/>
    <circle id="Ellipse_93" data-name="Ellipse 93" cx="20" cy="20" r="20" transform="translate(33 189)" fill="#92dde6"/>
    <circle id="Ellipse_94" data-name="Ellipse 94" cx="20" cy="20" r="20" transform="translate(213 189)" fill="#efec6b"/>
    <circle id="Ellipse_95" data-name="Ellipse 95" cx="20" cy="20" r="20" transform="translate(393 189)" fill="#92dde6"/>
    <circle id="Ellipse_96" data-name="Ellipse 96" cx="20" cy="20" r="20" transform="translate(753 189)" fill="#92dde6"/>
    <circle id="Ellipse_97" data-name="Ellipse 97" cx="20" cy="20" r="20" transform="translate(573 189)" fill="#efec6b"/>
    <circle id="Ellipse_98" data-name="Ellipse 98" cx="20" cy="20" r="20" transform="translate(933 189)" fill="#efec6b"/>
    <circle id="Ellipse_99" data-name="Ellipse 99" cx="20" cy="20" r="20" transform="translate(1113 189)" fill="#92dde6"/>
    <circle id="Ellipse_102" data-name="Ellipse 102" cx="20" cy="20" r="20" transform="translate(393 189)" fill="#92dde6"/>
    <circle id="Ellipse_103" data-name="Ellipse 103" cx="20" cy="20" r="20" transform="translate(213 189)" fill="#efec6b"/>
    <circle id="Ellipse_106" data-name="Ellipse 106" cx="20" cy="20" r="20" transform="translate(753 189)" fill="#92dde6"/>
    <circle id="Ellipse_107" data-name="Ellipse 107" cx="20" cy="20" r="20" transform="translate(573 189)" fill="#efec6b"/>
    <circle id="Ellipse_110" data-name="Ellipse 110" cx="20" cy="20" r="20" transform="translate(1113 189)" fill="#92dde6"/>
    <circle id="Ellipse_111" data-name="Ellipse 111" cx="20" cy="20" r="20" transform="translate(933 189)" fill="#efec6b"/>
    <circle id="Ellipse_144" data-name="Ellipse 144" cx="20" cy="20" r="20" transform="translate(123 273)" fill="#cafc74"/>
    <circle id="Ellipse_146" data-name="Ellipse 146" cx="20" cy="20" r="20" transform="translate(483 273)" fill="#cafc74"/>
    <circle id="Ellipse_147" data-name="Ellipse 147" cx="20" cy="20" r="20" transform="translate(303 273)" fill="#ffacc7"/>
    <circle id="Ellipse_148" data-name="Ellipse 148" cx="20" cy="20" r="20" transform="translate(843 273)" fill="#cafc74"/>
    <circle id="Ellipse_149" data-name="Ellipse 149" cx="20" cy="20" r="20" transform="translate(663 273)" fill="#ffacc7"/>
    <circle id="Ellipse_151" data-name="Ellipse 151" cx="20" cy="20" r="20" transform="translate(33 357)" fill="#efec6b"/>
    <circle id="Ellipse_152" data-name="Ellipse 152" cx="20" cy="20" r="20" transform="translate(213 357)" fill="#92dde6"/>
    <circle id="Ellipse_153" data-name="Ellipse 153" cx="20" cy="20" r="20" transform="translate(573 357)" fill="#92dde6"/>
    <circle id="Ellipse_154" data-name="Ellipse 154" cx="20" cy="20" r="20" transform="translate(393 357)" fill="#efec6b"/>
    <circle id="Ellipse_155" data-name="Ellipse 155" cx="20" cy="20" r="20" transform="translate(753 357)" fill="#efec6b"/>
    <circle id="Ellipse_156" data-name="Ellipse 156" cx="20" cy="20" r="20" transform="translate(933 357)" fill="#92dde6"/>
    <circle id="Ellipse_157" data-name="Ellipse 157" cx="20" cy="20" r="20" transform="translate(213 357)" fill="#92dde6"/>
    <circle id="Ellipse_158" data-name="Ellipse 158" cx="20" cy="20" r="20" transform="translate(33 357)" fill="#efec6b"/>
    <circle id="Ellipse_159" data-name="Ellipse 159" cx="20" cy="20" r="20" transform="translate(573 357)" fill="#92dde6"/>
    <circle id="Ellipse_160" data-name="Ellipse 160" cx="20" cy="20" r="20" transform="translate(393 357)" fill="#efec6b"/>
    <circle id="Ellipse_161" data-name="Ellipse 161" cx="20" cy="20" r="20" transform="translate(933 357)" fill="#92dde6"/>
    <circle id="Ellipse_162" data-name="Ellipse 162" cx="20" cy="20" r="20" transform="translate(753 357)" fill="#efec6b"/>
    <circle id="Ellipse_163" data-name="Ellipse 163" cx="20" cy="20" r="20" transform="translate(1023 273)" fill="#ffacc7"/>
    <circle id="Ellipse_164" data-name="Ellipse 164" cx="20" cy="20" r="20" transform="translate(1113 357)" fill="#efec6b"/>
    <circle id="Ellipse_165" data-name="Ellipse 165" cx="20" cy="20" r="20" transform="translate(303 441)" fill="#cafc74"/>
    <circle id="Ellipse_166" data-name="Ellipse 166" cx="20" cy="20" r="20" transform="translate(123 441)" fill="#ffacc7"/>
    <circle id="Ellipse_167" data-name="Ellipse 167" cx="20" cy="20" r="20" transform="translate(663 441)" fill="#cafc74"/>
    <circle id="Ellipse_168" data-name="Ellipse 168" cx="20" cy="20" r="20" transform="translate(483 441)" fill="#ffacc7"/>
    <circle id="Ellipse_169" data-name="Ellipse 169" cx="20" cy="20" r="20" transform="translate(1023 441)" fill="#cafc74"/>
    <circle id="Ellipse_170" data-name="Ellipse 170" cx="20" cy="20" r="20" transform="translate(843 441)" fill="#ffacc7"/>
    <circle id="Ellipse_171" data-name="Ellipse 171" cx="20" cy="20" r="20" transform="translate(33 525)" fill="#92dde6"/>
    <circle id="Ellipse_172" data-name="Ellipse 172" cx="20" cy="20" r="20" transform="translate(213 525)" fill="#efec6b"/>
    <circle id="Ellipse_173" data-name="Ellipse 173" cx="20" cy="20" r="20" transform="translate(393 525)" fill="#92dde6"/>
    <circle id="Ellipse_174" data-name="Ellipse 174" cx="20" cy="20" r="20" transform="translate(753 525)" fill="#92dde6"/>
    <circle id="Ellipse_175" data-name="Ellipse 175" cx="20" cy="20" r="20" transform="translate(573 525)" fill="#efec6b"/>
    <circle id="Ellipse_176" data-name="Ellipse 176" cx="20" cy="20" r="20" transform="translate(933 525)" fill="#efec6b"/>
    <circle id="Ellipse_177" data-name="Ellipse 177" cx="20" cy="20" r="20" transform="translate(1113 525)" fill="#92dde6"/>
    <circle id="Ellipse_178" data-name="Ellipse 178" cx="20" cy="20" r="20" transform="translate(393 525)" fill="#92dde6"/>
    <circle id="Ellipse_179" data-name="Ellipse 179" cx="20" cy="20" r="20" transform="translate(213 525)" fill="#efec6b"/>
    <circle id="Ellipse_180" data-name="Ellipse 180" cx="20" cy="20" r="20" transform="translate(753 525)" fill="#92dde6"/>
    <circle id="Ellipse_181" data-name="Ellipse 181" cx="20" cy="20" r="20" transform="translate(573 525)" fill="#efec6b"/>
    <circle id="Ellipse_182" data-name="Ellipse 182" cx="20" cy="20" r="20" transform="translate(1113 525)" fill="#92dde6"/>
    <circle id="Ellipse_183" data-name="Ellipse 183" cx="20" cy="20" r="20" transform="translate(933 525)" fill="#efec6b"/>
    <circle id="Ellipse_184" data-name="Ellipse 184" cx="20" cy="20" r="20" transform="translate(123 609)" fill="#cafc74"/>
    <circle id="Ellipse_185" data-name="Ellipse 185" cx="20" cy="20" r="20" transform="translate(483 609)" fill="#cafc74"/>
    <circle id="Ellipse_186" data-name="Ellipse 186" cx="20" cy="20" r="20" transform="translate(303 609)" fill="#ffacc7"/>
    <circle id="Ellipse_187" data-name="Ellipse 187" cx="20" cy="20" r="20" transform="translate(843 609)" fill="#cafc74"/>
    <circle id="Ellipse_188" data-name="Ellipse 188" cx="20" cy="20" r="20" transform="translate(663 609)" fill="#ffacc7"/>
    <circle id="Ellipse_189" data-name="Ellipse 189" cx="20" cy="20" r="20" transform="translate(1023 609)" fill="#ffacc7"/>
  </g>
</svg>
